<svg width="50" height="50" viewBox="0 0 50 50" fill="none" xmlns="http://www.w3.org/2000/svg">
<circle cx="25" cy="25" r="25" fill="#E0E1DD"/>
<path d="M23 26C17.08 26 15 29 15 31V34H31V31C31 29 28.92 26 23 26Z" fill="#0D1B2A"/>
<path d="M23 25C25.4853 25 27.5 22.9853 27.5 20.5C27.5 18.0147 25.4853 16 23 16C20.5147 16 18.5 18.0147 18.5 20.5C18.5 22.9853 20.5147 25 23 25Z" fill="#0D1B2A"/>
<path d="M29 25.8999C23.672 25.8999 21.8 28.5999 21.8 30.3999V33.0999H36.2V30.3999C36.2 28.5999 34.328 25.8999 29 25.8999Z" fill="#0D1B2A" fill-opacity="0.5"/>
<path d="M29 24.9999C31.2367 24.9999 33.05 23.1867 33.05 20.9499C33.05 18.7131 31.2367 16.8999 29 16.8999C26.7632 16.8999 24.95 18.7131 24.95 20.9499C24.95 23.1867 26.7632 24.9999 29 24.9999Z" fill="#0D1B2A" fill-opacity="0.5"/>
</svg>
