<svg xmlns="http://www.w3.org/2000/svg" xmlns:xlink="http://www.w3.org/1999/xlink" width="500" zoomAndPan="magnify" viewBox="0 0 375 374.999991" height="500" preserveAspectRatio="xMidYMid meet" version="1.0"><defs><g/></defs><rect x="-37.5" width="450" fill="#ffffff" y="-37.499999" height="449.999989" fill-opacity="1"/><rect x="-37.5" width="450" fill="#0d1b2a" y="-37.499999" height="449.999989" fill-opacity="1"/><g fill="#e0e1dd" fill-opacity="1"><g transform="translate(114.036562, 258.02295)"><g><path d="M 56.3125 3 C 56.3125 3 54.597656 2.289062 51.171875 0.875 C 47.753906 -0.539062 43.5 -2.875 38.40625 -6.125 C 33.320312 -9.382812 28.234375 -13.640625 23.140625 -18.890625 C 18.054688 -24.148438 13.800781 -30.617188 10.375 -38.296875 C 6.957031 -45.972656 5.25 -54.898438 5.25 -65.078125 C 5.25 -75.421875 6.957031 -84.425781 10.375 -92.09375 C 13.800781 -99.769531 18.054688 -106.320312 23.140625 -111.75 C 28.234375 -117.175781 33.320312 -121.597656 38.40625 -125.015625 C 43.5 -128.429688 47.753906 -130.929688 51.171875 -132.515625 C 54.597656 -134.109375 56.3125 -134.90625 56.3125 -134.90625 C 56.3125 -134.90625 55.519531 -134.148438 53.9375 -132.640625 C 52.351562 -131.140625 50.515625 -128.09375 48.421875 -123.5 C 46.335938 -118.914062 44.503906 -112.035156 42.921875 -102.859375 C 41.335938 -93.679688 40.546875 -81.421875 40.546875 -66.078125 C 40.546875 -50.722656 41.335938 -38.414062 42.921875 -29.15625 C 44.503906 -19.894531 46.335938 -12.96875 48.421875 -8.375 C 50.515625 -3.789062 52.351562 -0.75 53.9375 0.75 C 55.519531 2.25 56.3125 3 56.3125 3 Z M 89.84375 3 C 89.84375 3 90.632812 2.25 92.21875 0.75 C 93.8125 -0.75 95.691406 -3.789062 97.859375 -8.375 C 100.023438 -12.96875 101.898438 -19.894531 103.484375 -29.15625 C 105.078125 -38.414062 105.875 -50.722656 105.875 -66.078125 C 105.875 -81.421875 105.078125 -93.679688 103.484375 -102.859375 C 101.898438 -112.035156 100.023438 -118.914062 97.859375 -123.5 C 95.691406 -128.09375 93.8125 -131.140625 92.21875 -132.640625 C 90.632812 -134.148438 89.84375 -134.90625 89.84375 -134.90625 C 89.84375 -134.90625 91.550781 -134.109375 94.96875 -132.515625 C 98.394531 -130.929688 102.648438 -128.429688 107.734375 -125.015625 C 112.828125 -121.597656 117.914062 -117.175781 123 -111.75 C 128.09375 -106.320312 132.347656 -99.769531 135.765625 -92.09375 C 139.191406 -84.425781 140.90625 -75.421875 140.90625 -65.078125 C 140.90625 -54.898438 139.191406 -45.972656 135.765625 -38.296875 C 132.347656 -30.617188 128.09375 -24.148438 123 -18.890625 C 117.914062 -13.640625 112.828125 -9.382812 107.734375 -6.125 C 102.648438 -2.875 98.394531 -0.539062 94.96875 0.875 C 91.550781 2.289062 89.84375 3 89.84375 3 Z M 89.84375 3 "/></g></g></g></svg>