<svg width="202" height="202" viewBox="0 0 202 202" fill="none" xmlns="http://www.w3.org/2000/svg">
<g clip-path="url(#clip0_52_1664)">
<path d="M222.2 -20.2H-20.2V222.2H222.2V-20.2Z" fill="white"/>
<path d="M222.2 -20.2H-20.2V222.2H222.2V-20.2Z" fill="#0D1B2A"/>
<path d="M91.7613 140.604C91.7613 140.604 90.8376 140.221 88.9922 139.46C87.1511 138.698 84.8596 137.44 82.1158 135.689C79.3762 133.934 76.6365 131.641 73.8927 128.813C71.1531 125.98 68.8616 122.496 67.0163 118.359C65.1751 114.224 64.2556 109.416 64.2556 103.933C64.2556 98.3611 65.1751 93.511 67.0163 89.3805C68.8616 85.2458 71.1531 81.7171 73.8927 78.7923C76.6365 75.8697 79.3762 73.4877 82.1158 71.6466C84.8596 69.8076 87.1511 68.4609 88.9922 67.6066C90.8376 66.7481 91.7613 66.3188 91.7613 66.3188C91.7613 66.3188 91.3341 66.7271 90.4819 67.5393C89.6277 68.3473 88.6387 69.9885 87.5109 72.463C86.3872 74.9333 85.4004 78.6387 84.5482 83.5814C83.6939 88.5262 83.2689 95.1291 83.2689 103.394C83.2689 111.666 83.6939 118.296 84.5482 123.283C85.4004 128.272 86.3872 132.003 87.5109 134.477C88.6387 136.947 89.6277 138.584 90.4819 139.392C91.3341 140.2 91.7613 140.604 91.7613 140.604ZM109.823 140.604C109.823 140.604 110.248 140.2 111.103 139.392C111.961 138.584 112.973 136.947 114.141 134.477C115.307 132.003 116.317 128.272 117.171 123.283C118.03 118.296 118.459 111.666 118.459 103.394C118.459 95.1291 118.03 88.5262 117.171 83.5814C116.317 78.6387 115.307 74.9333 114.141 72.463C112.973 69.9885 111.961 68.3473 111.103 67.5393C110.248 66.7271 109.823 66.3188 109.823 66.3188C109.823 66.3188 110.743 66.7481 112.584 67.6066C114.429 68.4609 116.721 69.8076 119.461 71.6466C122.204 73.4877 124.944 75.8697 127.684 78.7923C130.427 81.7171 132.719 85.2458 134.56 89.3805C136.405 93.511 137.329 98.3611 137.329 103.933C137.329 109.416 136.405 114.224 134.56 118.359C132.719 122.496 130.427 125.98 127.684 128.813C124.944 131.641 122.204 133.934 119.461 135.689C116.721 137.44 114.429 138.698 112.584 139.46C110.743 140.221 109.823 140.604 109.823 140.604Z" fill="#E0E1DD"/>
</g>
<defs>
<clipPath id="clip0_52_1664">
<rect width="202" height="202" rx="101" fill="white"/>
</clipPath>
</defs>
</svg>
