<svg width="267" height="267" viewBox="0 0 267 267" fill="none" xmlns="http://www.w3.org/2000/svg">
<mask id="mask0_38_1482" style="mask-type:luminance" maskUnits="userSpaceOnUse" x="30" y="38" width="207" height="191">
<path d="M30.2266 38.5703H236.784V228.674H30.2266V38.5703Z" fill="white"/>
</mask>
<g mask="url(#mask0_38_1482)">
<mask id="mask1_38_1482" style="mask-type:luminance" maskUnits="userSpaceOnUse" x="-27" y="-27" width="321" height="321">
<path d="M293.7 -26.7002H-26.7V293.7H293.7V-26.7002Z" fill="black" fill-opacity="0.25"/>
</mask>
<g mask="url(#mask1_38_1482)">
<mask id="mask2_38_1482" style="mask-type:luminance" maskUnits="userSpaceOnUse" x="29" y="38" width="209" height="192">
<path d="M237.096 38.4478H29.9041V229.264H237.096V38.4478Z" fill="white"/>
</mask>
<g mask="url(#mask2_38_1482)">
<mask id="mask3_38_1482" style="mask-type:luminance" maskUnits="userSpaceOnUse" x="30" y="38" width="207" height="191">
<path d="M30.2266 38.5703H236.784V228.674H30.2266V38.5703Z" fill="white"/>
</mask>
<g mask="url(#mask3_38_1482)">
<path d="M213.942 190.652H214.351C201.732 190.652 191.503 182.141 191.503 171.642C191.503 166.393 194.062 161.643 198.195 158.203C198.765 157.727 199.366 157.277 199.997 156.857C198.843 156.353 197.936 155.594 197.277 154.587C196.412 153.272 196.192 151.831 196.615 150.257C197.04 148.685 197.953 147.548 199.36 146.844C200.767 146.143 202.319 146.018 204.016 146.48C205.712 146.936 206.992 147.823 207.857 149.139C208.683 150.39 208.922 151.761 208.571 153.249C210.418 152.849 212.354 152.635 214.354 152.635H213.945C220.253 152.635 225.963 150.507 230.096 147.067C234.228 143.626 236.787 138.873 236.787 133.622C236.787 126.441 232.001 120.189 224.936 116.957C226.538 119.691 226.841 122.903 225.849 126.597C225.373 128.36 224.591 129.87 223.501 131.124C222.414 132.382 220.89 133.555 218.937 134.645L214.362 137.065C213.052 137.783 212.056 138.614 211.369 139.557C211.23 139.749 211.094 139.955 210.963 140.172C209.87 142.002 207.665 142.85 205.612 142.294C202.647 141.493 201.132 138.139 202.578 135.424C202.884 134.84 203.212 134.323 203.549 133.861C204.733 132.256 206.285 131.008 208.21 130.112C210.135 129.216 211.653 128.335 212.763 127.459C213.872 126.588 214.607 125.49 214.963 124.174C215.825 120.965 214.879 118.99 212.12 118.247C210.844 117.905 209.689 118.094 208.655 118.817C208.31 119.057 207.996 119.346 207.715 119.682C206.505 121.12 204.622 121.796 202.809 121.307L201.343 120.909C197.875 119.974 196.62 115.722 198.971 113.06C195.141 111.686 191.851 109.461 189.45 106.674C189.495 107.595 189.517 108.518 189.517 109.45C189.517 123.838 184.347 137.01 175.755 147.211L180.695 156.442C182.786 160.344 181.318 165.209 177.419 167.297L176.042 168.04L193.619 200.887C195.708 204.794 194.237 209.656 190.34 211.75L183.401 215.469C179.502 217.563 174.643 216.092 172.554 212.187L154.98 179.332L153.603 180.069C149.703 182.16 144.847 180.689 142.759 176.787L137.883 167.678C135.608 167.945 133.291 168.087 130.947 168.087C98.6036 168.087 72.3875 141.832 72.3875 109.447C72.3875 109.15 72.3875 108.852 72.3931 108.557C72.2095 108.721 72.0232 108.88 71.8341 109.036C68.4854 111.828 64.0994 113.753 59.2044 114.384C59.5187 120.659 64.9811 128.062 67.2617 130.899C67.6817 131.422 67.3702 132.201 66.7027 132.29L44.995 135.154C44.6446 135.202 44.2997 135.029 44.13 134.718C43.1649 132.957 40.1862 126.733 40.6423 117.666C39.299 118.392 38.0474 119.235 36.9182 120.175C32.7853 123.621 30.2266 128.374 30.2266 133.622C30.2266 142.786 38.0141 150.432 48.3798 152.231C50.1348 150.118 52.6768 148.393 55.9976 147.05C60.5394 145.214 64.4832 144.844 67.8291 145.937C71.1666 147.03 73.6224 149.517 75.1827 153.391C75.8641 155.085 76.1478 156.762 76.0338 158.42C75.942 159.799 75.5721 161.312 74.9324 162.964C76.5372 165.565 77.4438 168.516 77.4438 171.642C77.4438 175.477 76.081 179.051 73.7281 182.038C73.9478 182.091 74.1647 182.155 74.3845 182.233C75.8641 182.761 76.9071 183.779 77.5162 185.289C78.1225 186.799 78.078 188.257 77.3799 189.667C76.679 191.077 75.5137 192.112 73.8866 192.768C72.254 193.427 70.7021 193.491 69.2197 192.963C67.7373 192.432 66.6943 191.414 66.0852 189.903C65.8627 189.35 65.7292 188.805 65.6847 188.265C62.4028 189.787 58.6231 190.649 54.6042 190.649H53.0718C46.7639 190.649 41.054 192.779 36.921 196.217C32.7853 199.663 30.2266 204.416 30.2266 209.664C30.2266 220.161 40.4532 228.674 53.0662 228.674H213.942C220.247 228.674 225.96 226.546 230.09 223.106C234.223 219.666 236.782 214.915 236.782 209.667C236.782 199.168 226.555 190.654 213.942 190.654V190.652ZM127.737 178.186L122.934 206.733C122.856 207.186 122.439 207.5 121.98 207.445C118.79 207.058 106.992 205.273 100.014 199.396C93.0578 193.541 90.5686 188.835 89.9928 187.6C89.9038 187.406 89.8927 187.181 89.9595 186.972L96.2117 168.107C96.3897 167.575 97.0211 167.35 97.4911 167.656C99.5854 169.008 105.003 172.279 111.464 174.434C118.05 176.634 124.519 177.09 126.922 177.185C127.44 177.204 127.823 177.674 127.737 178.186ZM213.942 38.5728H53.0662C46.7611 38.5728 41.0484 40.7004 36.9182 44.1408C32.7853 47.5812 30.2266 52.3316 30.2266 57.5826C30.2266 68.0818 40.4532 76.5924 53.0662 76.5924H55.6833C64.9533 76.5924 72.9299 81.1898 76.5149 87.7898C85.1201 66.1322 106.246 50.8214 130.947 50.8214C155.647 50.8214 178.172 67.1584 186.199 89.9591C187.309 86.9804 189.281 84.3132 191.867 82.1633C192.752 81.4263 193.706 80.7504 194.724 80.1469C193.914 80.2859 193.18 80.1747 192.518 79.8103C191.792 79.4126 191.336 78.7952 191.144 77.9608C190.952 77.1264 191.1 76.3699 191.578 75.6969C192.059 75.021 192.752 74.5816 193.653 74.3758C194.557 74.1672 195.369 74.2618 196.095 74.6623C196.821 75.06 197.28 75.6746 197.471 76.5118C197.661 77.3462 197.516 78.1027 197.038 78.7757C196.974 78.8619 196.91 78.9454 196.843 79.0233C200.144 77.4741 203.96 76.5924 208.018 76.5924H213.945C220.253 76.5924 225.963 74.4648 230.096 71.0244C234.228 67.584 236.787 62.8336 236.787 57.5826C236.787 47.0862 226.558 38.5728 213.945 38.5728H213.942ZM198.932 62.4164C198.734 63.2703 198.314 64.1908 197.674 65.181L196.145 67.4393C195.714 68.0985 195.452 68.7298 195.369 69.3389C195.352 69.4641 195.335 69.592 195.33 69.7228C195.305 70.2846 195.085 70.7991 194.735 71.2052C194.387 71.614 193.911 71.9088 193.364 72.0368C191.787 72.3955 190.254 71.2079 190.26 69.5893C190.26 69.2444 190.282 68.9218 190.326 68.6242C190.479 67.584 190.897 66.6189 191.57 65.7261C192.245 64.8361 192.732 64.049 193.033 63.3676C193.336 62.6862 193.408 61.9964 193.247 61.2956C192.855 59.5934 191.928 58.9065 190.463 59.243C189.784 59.396 189.295 59.7714 188.991 60.3638C188.891 60.5585 188.816 60.7727 188.766 61.0008C188.56 61.9658 187.848 62.7446 186.886 62.9643L186.107 63.1423C184.233 63.5734 182.578 61.8407 183.095 59.9856C183.284 59.3014 183.587 58.6645 184.002 58.0749C185.112 56.4951 186.931 55.4188 189.456 54.8403C191.97 54.2618 194.051 54.3981 195.697 55.2463C197.344 56.0918 198.412 57.5882 198.904 59.7325C199.118 60.6698 199.126 61.5653 198.929 62.4164H198.932Z" fill="#B1BEC6"/>
</g>
<path d="M205.709 107.1C212.565 107.1 218.119 101.538 218.119 94.6766C218.119 87.8125 212.565 82.25 205.709 82.25C198.856 82.25 193.3 87.8125 193.3 94.6766C193.3 101.538 198.856 107.1 205.709 107.1Z" fill="#B1BEC6"/>
<path d="M68.847 177.958C66.6248 181.301 62.8256 183.501 58.5147 183.501C51.6617 183.501 46.1047 177.939 46.1047 171.075C46.1047 168.282 47.0253 165.71 48.5773 163.635C49.6759 164.085 50.9552 164.141 52.2012 163.638L53.6113 163.065C55.3524 162.364 56.451 160.69 56.5483 158.812V158.807C57.1908 158.707 57.8472 158.651 58.5147 158.651C61.0873 158.651 63.4792 159.438 65.4622 160.781C65.4344 161.176 65.3649 161.574 65.2592 161.974C64.8976 163.346 64.219 164.962 63.2206 166.839C62.2221 168.711 61.7354 170.646 61.7576 172.643C61.7604 173.214 61.816 173.825 61.9189 174.476C62.4001 177.513 65.6291 179.279 68.4771 178.131C68.6051 178.078 68.7274 178.022 68.847 177.961V177.958Z" fill="#B1BEC6"/>
</g>
</g>
</g>
<path d="M170.938 109.456C170.938 131.567 153.033 149.495 130.947 149.495C108.864 149.495 90.9607 131.567 90.9607 109.456C90.9607 87.3421 108.861 69.417 130.947 69.417C153.035 69.417 170.938 87.3394 170.938 109.456Z" fill="#B1BEC6" fill-opacity="0.25"/>
<path d="M130.947 150.115C108.558 150.115 90.3433 131.876 90.3433 109.456C90.3433 87.0335 108.56 68.7969 130.947 68.7969C153.336 68.7969 171.559 87.0363 171.559 109.456C171.559 131.873 153.341 150.115 130.947 150.115ZM130.947 70.0373C109.242 70.0373 91.5809 87.7205 91.5809 109.456C91.5809 131.189 109.242 148.875 130.947 148.875C152.654 148.875 170.318 131.191 170.318 109.456C170.318 87.7177 152.657 70.0373 130.947 70.0373Z" fill="#B1BEC6"/>
<path d="M130.947 50.8218C98.6065 50.8218 72.3877 77.0712 72.3877 109.456C72.3877 141.838 98.6065 168.093 130.947 168.093C133.294 168.093 135.611 167.951 137.883 167.684C153.036 165.896 166.419 158.314 175.756 147.214C184.347 137.015 189.517 123.838 189.517 109.456C189.517 77.0712 163.296 50.8218 130.947 50.8218ZM130.947 149.495C108.864 149.495 90.9609 131.567 90.9609 109.456C90.9609 87.3424 108.861 69.4172 130.947 69.4172C153.036 69.4172 170.938 87.3396 170.938 109.456C170.938 131.57 153.033 149.495 130.947 149.495Z" fill="#B1BEC6" fill-opacity="0.5"/>
<path d="M130.947 168.714C115.141 168.714 100.278 162.55 89.1002 151.359C77.9223 140.164 71.7646 125.284 71.7646 109.456C71.7646 93.6309 77.9196 78.7484 89.1002 67.5567C100.275 56.3649 115.138 50.2017 130.947 50.2017C146.758 50.2017 161.621 56.3649 172.802 67.5567C183.98 78.7484 190.137 93.6281 190.137 109.456C190.137 123.413 185.198 136.966 176.231 147.618C166.494 159.193 152.899 166.541 137.958 168.302C135.636 168.577 133.275 168.716 130.95 168.716L130.947 168.714ZM130.947 51.4421C98.9986 51.4421 73.0051 77.4663 73.0051 109.456C73.0051 141.443 98.9986 167.473 130.947 167.473C133.227 167.473 135.536 167.337 137.811 167.067C152.438 165.343 165.746 158.15 175.283 146.814C184.063 136.387 188.897 123.12 188.897 109.456C188.897 77.4663 162.901 51.4421 130.947 51.4421Z" fill="#B1BEC6"/>
<path d="M190.34 211.753L183.398 215.474C179.499 217.566 174.643 216.097 172.554 212.19L154.979 179.338L176.039 168.043L193.617 200.895C195.705 204.8 194.237 209.662 190.338 211.753H190.34Z" fill="#B1BEC6" fill-opacity="0.75"/>
<path d="M179.627 217.051C178.79 217.051 177.944 216.926 177.118 216.676C174.91 216.008 173.097 214.518 172.009 212.485L154.14 179.082L176.295 167.203L194.165 200.6C196.412 204.803 194.827 210.051 190.632 212.298L183.69 216.02C182.419 216.704 181.032 217.051 179.627 217.051ZM155.817 179.591L173.099 211.898C174.031 213.642 175.589 214.918 177.477 215.488C179.368 216.061 181.368 215.861 183.106 214.929L190.046 211.208C193.639 209.283 194.996 204.786 193.072 201.187L175.789 168.883L155.82 179.591H155.817Z" fill="#B1BEC6"/>
<path d="M177.419 167.303L176.039 168.043L154.98 179.338L153.6 180.078C149.701 182.169 144.845 180.698 142.756 176.793L137.883 167.684C141.24 167.289 144.505 166.611 147.665 165.668C155.48 163.346 162.614 159.427 168.686 154.295C171.239 152.143 173.606 149.773 175.756 147.214L180.695 156.445C182.784 160.35 181.315 165.212 177.419 167.303Z" fill="#B1BEC6"/>
<path d="M119.154 106.043C121.168 106.043 122.801 103.702 122.801 100.809C122.801 97.9193 121.168 95.5747 119.154 95.5747C117.144 95.5747 115.511 97.9193 115.511 100.809C115.511 103.702 117.144 106.043 119.154 106.043Z" fill="#B1BEC6"/>
<path d="M142.742 106.043C144.756 106.043 146.386 103.702 146.386 100.809C146.386 97.9193 144.756 95.5747 142.742 95.5747C140.731 95.5747 139.099 97.9193 139.099 100.809C139.099 103.702 140.731 106.043 142.742 106.043Z" fill="#B1BEC6"/>
<path d="M119.763 123.896C119.98 123.435 120.222 122.987 120.487 122.55C120.617 122.333 120.756 122.119 120.898 121.908C120.971 121.802 121.043 121.699 121.118 121.596C121.187 121.499 121.304 121.393 121.346 121.287L121.243 121.418C121.274 121.376 121.307 121.338 121.338 121.296C121.371 121.257 121.404 121.215 121.435 121.176C121.516 121.079 121.596 120.982 121.677 120.884C121.844 120.689 122.014 120.498 122.189 120.314C122.539 119.944 122.906 119.591 123.293 119.257C123.479 119.096 123.718 118.951 123.883 118.77C123.71 118.957 123.738 118.882 123.816 118.823C123.877 118.779 123.938 118.731 123.999 118.687C124.102 118.612 124.205 118.537 124.308 118.464C124.725 118.175 125.159 117.908 125.604 117.661C125.827 117.538 126.052 117.422 126.28 117.313C126.383 117.263 126.486 117.213 126.589 117.166C126.647 117.141 126.705 117.116 126.764 117.088C126.861 117.046 127.048 117.021 126.747 117.093C126.984 117.038 127.223 116.904 127.456 116.824C127.687 116.743 127.935 116.662 128.177 116.593C128.661 116.451 129.156 116.337 129.654 116.253C129.776 116.231 129.904 116.22 130.029 116.195C129.631 116.273 130.051 116.195 130.154 116.184C130.405 116.159 130.658 116.142 130.914 116.131C131.411 116.112 131.912 116.123 132.407 116.167C132.529 116.176 132.655 116.189 132.777 116.203C132.827 116.209 132.874 116.217 132.924 116.223C132.543 116.192 132.802 116.206 132.891 116.223C133.136 116.259 133.38 116.306 133.62 116.359C134.106 116.465 134.585 116.601 135.058 116.762C135.291 116.843 135.525 116.932 135.756 117.024C135.836 117.057 135.917 117.132 135.667 116.985C135.72 117.015 135.781 117.035 135.836 117.06C135.961 117.116 136.087 117.174 136.209 117.232C136.657 117.449 137.091 117.691 137.513 117.958C137.711 118.086 137.908 118.217 138.1 118.353C138.189 118.417 138.278 118.487 138.37 118.553C138.587 118.712 138.145 118.37 138.356 118.54C138.415 118.587 138.47 118.634 138.529 118.681C138.951 119.026 139.349 119.396 139.722 119.791C139.916 119.997 140.106 120.211 140.284 120.431C140.322 120.478 140.361 120.525 140.4 120.575C140.57 120.781 140.228 120.342 140.389 120.559C140.475 120.678 140.564 120.798 140.648 120.918C140.959 121.363 141.235 121.83 141.477 122.314C141.543 122.447 141.607 122.581 141.666 122.717C141.688 122.762 141.705 122.806 141.727 122.853C141.568 122.531 141.683 122.748 141.716 122.828C141.827 123.106 141.924 123.387 142.013 123.671C142.205 124.288 142.887 124.75 143.538 124.539C144.188 124.327 144.608 123.677 144.403 123.012C143.07 118.693 139.374 115.405 135.083 114.17C130.73 112.919 126.01 114.048 122.45 116.779C120.42 118.337 118.723 120.325 117.627 122.65C117.349 123.234 117.447 124.016 118.072 124.347C118.623 124.639 119.471 124.53 119.766 123.902L119.763 123.896Z" fill="#B1BEC6"/>
<path d="M68.4771 178.125C65.6291 179.276 62.4001 177.51 61.9189 174.473C61.816 173.822 61.7632 173.211 61.7576 172.638C61.7354 170.641 62.2221 168.708 63.2205 166.833C64.219 164.959 64.8976 163.34 65.2592 161.972C65.6208 160.603 65.5484 159.288 65.0367 158.022C63.7963 154.943 61.8494 153.937 59.2016 155.007C57.9779 155.502 57.1713 156.351 56.7792 157.552C56.6484 157.953 56.5706 158.373 56.5483 158.812C56.4482 160.687 55.3524 162.361 53.6113 163.065L52.2012 163.635C48.8137 165.003 45.1869 162.25 45.6013 158.615C45.7543 157.274 46.1325 155.989 46.7333 154.76C48.3436 151.464 51.4308 148.894 55.9949 147.053C60.5394 145.217 64.4832 144.845 67.8263 145.938C71.1666 147.033 73.6196 149.517 75.1799 153.391C75.8641 155.085 76.1478 156.762 76.0338 158.42C75.9197 160.08 75.4135 161.935 74.5069 163.982L72.3124 168.677C71.7006 170.04 71.403 171.303 71.4252 172.468C71.428 172.704 71.4419 172.952 71.4725 173.202C71.6978 175.324 70.4518 177.33 68.4743 178.125H68.4771ZM66.0852 189.909C65.4761 188.399 65.5234 186.939 66.2215 185.529C66.9196 184.121 68.0849 183.087 69.7148 182.428C71.3474 181.768 72.9021 181.705 74.3817 182.233C75.8641 182.761 76.9071 183.782 77.5162 185.29C78.1253 186.8 78.078 188.26 77.3799 189.667C76.679 191.077 75.5137 192.109 73.8839 192.771C72.254 193.427 70.6993 193.494 69.2169 192.966C67.7373 192.437 66.6943 191.417 66.0852 189.909Z" fill="#B1BEC6" fill-opacity="0.75"/>
<path d="M205.612 142.294C202.645 141.493 201.132 138.139 202.578 135.428C202.887 134.843 203.212 134.323 203.548 133.864C204.733 132.26 206.285 131.008 208.21 130.113C210.132 129.22 211.65 128.338 212.763 127.462C213.872 126.589 214.607 125.493 214.96 124.177C215.822 120.968 214.874 118.993 212.117 118.248C210.844 117.906 209.689 118.095 208.652 118.818C208.307 119.06 207.996 119.346 207.712 119.683C206.502 121.121 204.622 121.797 202.809 121.307L201.34 120.912C197.813 119.961 196.576 115.575 199.093 112.924C200.025 111.948 201.098 111.15 202.316 110.53C205.584 108.872 209.592 108.683 214.345 109.965C219.076 111.239 222.447 113.322 224.458 116.212C226.466 119.102 226.93 122.564 225.843 126.597C225.367 128.363 224.589 129.871 223.498 131.125C222.411 132.379 220.887 133.553 218.934 134.643L214.356 137.066C213.049 137.783 212.051 138.615 211.367 139.555C211.227 139.744 211.091 139.95 210.96 140.17C209.865 142 207.665 142.845 205.607 142.292L205.612 142.294ZM196.612 150.257C197.038 148.686 197.95 147.548 199.357 146.845C200.762 146.141 202.314 146.019 204.013 146.477C205.709 146.934 206.989 147.821 207.854 149.136C208.719 150.452 208.939 151.895 208.516 153.467C208.09 155.038 207.175 156.176 205.771 156.879C204.366 157.583 202.814 157.705 201.115 157.249C199.418 156.79 198.136 155.903 197.277 154.588C196.412 153.272 196.192 151.829 196.615 150.257H196.612Z" fill="#B1BEC6" fill-opacity="0.75"/>
<path d="M193.364 72.0316C191.787 72.3932 190.257 71.2056 190.26 69.5869C190.26 69.2392 190.282 68.9166 190.327 68.619C190.48 67.5816 190.894 66.6165 191.57 65.7237C192.246 64.8337 192.732 64.0467 193.033 63.3652C193.336 62.6866 193.405 61.9941 193.247 61.296C192.855 59.5911 191.929 58.9069 190.463 59.2434C189.787 59.3964 189.298 59.7719 188.994 60.3643C188.891 60.559 188.816 60.7731 188.769 60.9984C188.56 61.9663 187.851 62.745 186.889 62.9647L186.107 63.1427C184.233 63.5738 182.575 61.8383 183.095 59.986C183.287 59.2991 183.588 58.6622 184.002 58.0753C185.115 56.4956 186.931 55.4164 189.459 54.8379C191.973 54.2622 194.053 54.3957 195.7 55.244C197.346 56.0895 198.417 57.5858 198.907 59.7302C199.121 60.6674 199.129 61.563 198.932 62.4141C198.737 63.2679 198.317 64.1885 197.677 65.1814L196.148 67.4398C195.714 68.0962 195.455 68.7303 195.369 69.3366C195.352 69.4617 195.341 69.5897 195.333 69.7204C195.274 70.844 194.46 71.7813 193.366 72.0316H193.364ZM191.144 77.9585C190.952 77.1213 191.097 76.3676 191.578 75.6917C192.062 75.0187 192.752 74.5765 193.653 74.3707C194.557 74.1648 195.369 74.2622 196.095 74.6571C196.821 75.0576 197.28 75.6751 197.472 76.5094C197.664 77.3438 197.516 78.1003 197.038 78.7734C196.557 79.4492 195.867 79.8887 194.963 80.0945C194.059 80.3031 193.247 80.2085 192.521 79.808C191.795 79.4103 191.339 78.7928 191.144 77.9585Z" fill="#B1BEC6" fill-opacity="0.75"/>
<path d="M96.2117 168.11C96.3897 167.576 97.021 167.353 97.4938 167.656C99.5853 169.008 105.003 172.282 111.464 174.437C118.05 176.634 124.519 177.09 126.922 177.185C127.44 177.204 127.823 177.674 127.737 178.186L122.931 206.733C122.856 207.186 122.436 207.5 121.98 207.445C118.787 207.058 106.992 205.273 100.014 199.399C93.0355 193.522 90.5685 188.836 89.9956 187.603C89.9038 187.406 89.8927 187.181 89.9594 186.972L96.2117 168.107V168.11Z" fill="#B1BEC6" fill-opacity="0.25"/>
<path d="M122.086 208.073C122.027 208.073 121.966 208.068 121.908 208.062C118.464 207.645 106.68 205.823 99.6159 199.874C92.6016 193.967 90.0484 189.189 89.4366 187.868C89.278 187.526 89.2558 187.139 89.3754 186.777L95.6276 167.912C95.7722 167.476 96.106 167.136 96.5426 166.983C96.9765 166.83 97.4466 166.886 97.8331 167.136C99.8551 168.441 105.251 171.709 111.664 173.847C118.15 176.011 124.514 176.47 126.95 176.567C127.376 176.581 127.771 176.782 128.04 177.113C128.307 177.444 128.419 177.872 128.349 178.292L123.546 206.839C123.423 207.559 122.8 208.073 122.088 208.073H122.086ZM96.8013 168.304L90.5491 187.17C90.5296 187.228 90.5324 187.289 90.5574 187.342C91.1442 188.607 93.5917 193.18 100.411 198.923C107.214 204.65 118.698 206.421 122.052 206.827C122.183 206.844 122.3 206.755 122.319 206.63L127.125 178.083C127.142 177.989 127.1 177.922 127.075 177.891C127.05 177.861 126.992 177.808 126.897 177.802C124.408 177.705 117.903 177.238 111.269 175.024C104.722 172.841 99.221 169.509 97.1573 168.176C97.0711 168.121 96.9904 168.137 96.9487 168.151C96.907 168.165 96.8319 168.204 96.7985 168.302L96.8013 168.304Z" fill="#B1BEC6"/>
<path d="M98.9208 191.706C98.8596 191.706 98.7984 191.698 98.7344 191.676C98.409 191.573 98.2282 191.225 98.3311 190.9L102.906 176.373C103.009 176.048 103.357 175.864 103.682 175.97C104.008 176.073 104.191 176.42 104.088 176.746L99.5132 191.272C99.4297 191.537 99.1822 191.706 98.9208 191.706Z" fill="#B1BEC6"/>
<path d="M104.091 193.942C104.024 193.942 103.952 193.928 103.885 193.906C103.563 193.792 103.393 193.439 103.507 193.113L106.461 184.714C106.575 184.391 106.928 184.222 107.251 184.336C107.573 184.45 107.743 184.803 107.629 185.128L104.675 193.528C104.586 193.781 104.347 193.942 104.091 193.942Z" fill="#B1BEC6"/>
<path d="M45.9379 100.003L62.9258 95.2497C63.6295 95.0522 64.2414 95.767 63.9382 96.4345C62.3362 99.9528 58.918 108.238 59.2017 114.34C59.4938 120.623 64.9756 128.06 67.2618 130.905C67.6818 131.428 67.3675 132.207 66.7028 132.293L44.9979 135.158C44.6447 135.202 44.3026 135.033 44.1329 134.721C42.6366 131.99 36.312 118.554 45.4039 100.44C45.5124 100.223 45.7099 100.064 45.9407 99.9973L45.9379 100.003Z" fill="#B1BEC6" fill-opacity="0.5"/>
<path d="M44.8782 135.789C44.3414 135.789 43.8491 135.503 43.5849 135.024C42.172 132.443 35.5749 118.626 44.8448 100.164C45.0311 99.7915 45.3677 99.5161 45.7682 99.4049L62.7561 94.6517C63.3151 94.4932 63.9019 94.6712 64.2802 95.1134C64.6556 95.5584 64.7419 96.1619 64.4999 96.6932C63.0008 99.9862 59.5409 108.299 59.8191 114.312C60.1027 120.395 65.4539 127.671 67.7428 130.516C68.0821 130.939 68.1656 131.492 67.9653 131.993C67.7623 132.499 67.3229 132.841 66.7833 132.913L45.0784 135.775C45.0117 135.784 44.9449 135.789 44.8782 135.789ZM63.1621 95.8365C63.1399 95.8365 63.1148 95.8393 63.0926 95.8477L46.1047 100.598C46.038 100.618 45.9851 100.665 45.9517 100.723C36.9627 118.632 43.3096 131.94 44.6724 134.426C44.7196 134.513 44.8142 134.557 44.9116 134.546L66.6192 131.681C66.7416 131.665 66.7916 131.581 66.8111 131.534C66.8306 131.484 66.8528 131.389 66.775 131.295C64.4109 128.355 58.879 120.818 58.5814 114.368C58.2894 108.085 61.8327 99.5523 63.3735 96.1786C63.4291 96.0563 63.3735 95.9645 63.3373 95.92C63.3095 95.8866 63.2511 95.8365 63.1621 95.8365Z" fill="#B1BEC6"/>
</svg>
