<svg width="18" height="19" viewBox="0 0 18 19" fill="none" xmlns="http://www.w3.org/2000/svg">
<path d="M15.7499 16.25L12.4927 12.9928M12.4927 12.9928C13.0498 12.4356 13.4918 11.7742 13.7933 11.0462C14.0949 10.3182 14.2501 9.53798 14.2501 8.75003C14.2501 7.96208 14.0949 7.18184 13.7933 6.45387C13.4918 5.7259 13.0498 5.06445 12.4927 4.50728C11.9355 3.95012 11.274 3.50815 10.5461 3.20661C9.8181 2.90508 9.03786 2.74988 8.24991 2.74988C7.46196 2.74988 6.68172 2.90508 5.95375 3.20661C5.22578 3.50815 4.56433 3.95012 4.00716 4.50728C2.88191 5.63253 2.24976 7.15869 2.24976 8.75003C2.24976 10.3414 2.88191 11.8675 4.00716 12.9928C5.13241 14.118 6.65857 14.7502 8.24991 14.7502C9.84125 14.7502 11.3674 14.118 12.4927 12.9928Z" stroke="#E0E1DD" stroke-opacity="0.5" stroke-width="1.5" stroke-linecap="round" stroke-linejoin="round"/>
</svg>
