<svg width="24" height="25" viewBox="0 0 24 25" fill="none" xmlns="http://www.w3.org/2000/svg">
<path d="M11.5 13H6.50001C6.35801 13 6.23934 12.952 6.14401 12.856C6.04867 12.76 6.00067 12.641 6.00001 12.499C5.99934 12.357 6.04734 12.2383 6.14401 12.143C6.24067 12.0477 6.35934 12 6.50001 12H11.5V7.00001C11.5 6.85801 11.548 6.73934 11.644 6.64401C11.74 6.54867 11.859 6.50067 12.001 6.50001C12.143 6.49934 12.2617 6.54734 12.357 6.64401C12.4523 6.74067 12.5 6.85934 12.5 7.00001V12H17.5C17.642 12 17.7607 12.048 17.856 12.144C17.9513 12.24 17.9993 12.359 18 12.501C18.0007 12.643 17.9527 12.7617 17.856 12.857C17.7593 12.9523 17.6407 13 17.5 13H12.5V18C12.5 18.142 12.452 18.2607 12.356 18.356C12.26 18.4513 12.141 18.4993 11.999 18.5C11.857 18.5007 11.7383 18.4527 11.643 18.356C11.5477 18.2593 11.5 18.1407 11.5 18V13Z" fill="#1B263B"/>
</svg>
