<svg width="32" height="32" viewBox="0 0 32 32" fill="none" xmlns="http://www.w3.org/2000/svg">
<path d="M9.22789 16.6668L16.4799 23.9188C16.6097 24.0485 16.6777 24.2014 16.6839 24.3774C16.6892 24.5534 16.6181 24.7148 16.4706 24.8614C16.3248 25.0037 16.1679 25.0761 15.9999 25.0788C15.8328 25.0806 15.6754 25.0081 15.5279 24.8614L7.42122 16.7548C7.30478 16.6374 7.223 16.5183 7.17589 16.3974C7.12878 16.2766 7.10522 16.1441 7.10522 16.0001C7.10522 15.8561 7.12878 15.7237 7.17589 15.6028C7.223 15.4819 7.30478 15.3632 7.42122 15.2468L15.5279 7.13877C15.6523 7.01433 15.8039 6.94766 15.9826 6.93877C16.1621 6.92988 16.3252 6.99655 16.4719 7.13877C16.6186 7.28544 16.6919 7.44366 16.6919 7.61344C16.6919 7.78411 16.6186 7.94277 16.4719 8.08944L9.22656 15.3334H24.6666C24.8568 15.3334 25.0154 15.397 25.1426 15.5241C25.2697 15.6512 25.3332 15.8099 25.3332 16.0001C25.3332 16.1903 25.2697 16.349 25.1426 16.4761C25.0154 16.6032 24.8568 16.6668 24.6666 16.6668H9.22789Z" fill="#E0E1DD"/>
</svg>
