<svg width="25" height="24" viewBox="0 0 25 24" fill="none" xmlns="http://www.w3.org/2000/svg">
<path d="M8.38502 10.23L12.5 3.46301L16.616 10.232L8.38502 10.23ZM18 21.23C16.9554 21.23 16.0724 20.8697 15.351 20.149C14.6297 19.4283 14.269 18.5453 14.269 17.5C14.269 16.4547 14.6297 15.5717 15.351 14.851C16.0724 14.1303 16.9554 13.7697 18 13.769C19.0447 13.7683 19.9277 14.129 20.649 14.851C21.3704 15.573 21.731 16.456 21.731 17.5C21.731 18.544 21.3704 19.427 20.649 20.149C19.9277 20.871 19.0447 21.2317 18 21.231M4.27002 20.731V14.269H10.73V20.731H4.27002ZM18 20.231C18.764 20.231 19.4104 19.967 19.939 19.439C20.4677 18.911 20.7317 18.2647 20.731 17.5C20.7304 16.7353 20.4664 16.089 19.939 15.561C19.4117 15.033 18.7654 14.769 18 14.769C17.2347 14.769 16.5884 15.033 16.061 15.561C15.5337 16.089 15.2697 16.7353 15.269 17.5C15.2684 18.2647 15.5324 18.911 16.061 19.439C16.5897 19.967 17.236 20.231 18 20.231ZM5.27002 19.731H9.73002V15.269H5.27002V19.731ZM10.127 9.23101H14.873L12.5 5.42701L10.127 9.23101Z" fill="#E0E1DD"/>
</svg>
