<svg width="64" height="64" viewBox="0 0 64 64" fill="none" xmlns="http://www.w3.org/2000/svg">
<path d="M30.6667 44H33.3333V29.3333H30.6667V44ZM32 25.5387C32.4658 25.5387 32.856 25.3813 33.1707 25.0667C33.4853 24.752 33.6418 24.3618 33.64 23.896C33.6382 23.4302 33.4809 23.0409 33.168 22.728C32.8551 22.4151 32.4658 22.2578 32 22.256C31.5342 22.2542 31.1449 22.4116 30.832 22.728C30.5191 23.0444 30.3618 23.4347 30.36 23.8987C30.3582 24.3627 30.5156 24.752 30.832 25.0667C31.1484 25.3813 31.5378 25.5387 32 25.5387ZM32.008 56C28.6889 56 25.5689 55.3707 22.648 54.112C19.7271 52.8516 17.1858 51.1413 15.024 48.9813C12.8622 46.8213 11.1511 44.2827 9.89067 41.3653C8.63022 38.448 8 35.3289 8 32.008C8 28.6871 8.63022 25.5671 9.89067 22.648C11.1493 19.7271 12.8569 17.1858 15.0133 15.024C17.1698 12.8622 19.7093 11.1511 22.632 9.89067C25.5547 8.63022 28.6747 8 31.992 8C35.3093 8 38.4293 8.63022 41.352 9.89067C44.2729 11.1493 46.8142 12.8578 48.976 15.016C51.1378 17.1742 52.8489 19.7138 54.1093 22.6347C55.3698 25.5556 56 28.6747 56 31.992C56 35.3093 55.3707 38.4293 54.112 41.352C52.8533 44.2747 51.1431 46.816 48.9813 48.976C46.8196 51.136 44.2809 52.8471 41.3653 54.1093C38.4498 55.3716 35.3307 56.0018 32.008 56ZM32 53.3333C37.9556 53.3333 43 51.2667 47.1333 47.1333C51.2667 43 53.3333 37.9556 53.3333 32C53.3333 26.0444 51.2667 21 47.1333 16.8667C43 12.7333 37.9556 10.6667 32 10.6667C26.0444 10.6667 21 12.7333 16.8667 16.8667C12.7333 21 10.6667 26.0444 10.6667 32C10.6667 37.9556 12.7333 43 16.8667 47.1333C21 51.2667 26.0444 53.3333 32 53.3333Z" fill="#E0E1DD"/>
</svg>
