<svg width="24" height="24" viewBox="0 0 24 24" fill="none" xmlns="http://www.w3.org/2000/svg">
<path d="M21.6601 6.42297L12.0001 0.844971L2.34009 6.42297V17.577L12.0001 23.155L21.6601 17.577V6.42297ZM12.0001 16C10.9392 16 9.92181 15.5785 9.17166 14.8284C8.42151 14.0783 8.00009 13.0608 8.00009 12C8.00009 10.9391 8.42151 9.92169 9.17166 9.17154C9.92181 8.4214 10.9392 7.99997 12.0001 7.99997C13.061 7.99997 14.0784 8.4214 14.8285 9.17154C15.5787 9.92169 16.0001 10.9391 16.0001 12C16.0001 13.0608 15.5787 14.0783 14.8285 14.8284C14.0784 15.5785 13.061 16 12.0001 16Z" fill="#E0E1DD"/>
</svg>
